<svg width="36" height="33" viewBox="0 0 36 33" fill="none" xmlns="http://www.w3.org/2000/svg">
<path d="M27.7577 2.81748C28.2091 2.12289 28.0121 1.19382 27.3175 0.742335C26.6229 0.290851 25.6938 0.487928 25.2423 1.18252L27.7577 2.81748ZM35.1286 26.8619C35.8808 26.5148 36.2091 25.6236 35.8619 24.8714C35.5148 24.1192 34.6236 23.7909 33.8714 24.1381L35.1286 26.8619ZM13.5 22C14.7577 22.8175 14.7577 22.8174 14.7578 22.8173C14.7578 22.8173 14.7579 22.8171 14.758 22.8169C14.7583 22.8166 14.7586 22.816 14.7591 22.8153C14.7601 22.8138 14.7615 22.8116 14.7634 22.8086C14.7672 22.8027 14.773 22.7939 14.7805 22.7823C14.7957 22.759 14.8183 22.7243 14.8479 22.6787C14.9072 22.5875 14.9947 22.4527 15.108 22.2785C15.3346 21.9299 15.6639 21.4232 16.075 20.7908C16.8971 19.526 18.0462 17.7583 19.3539 15.7464C21.9693 11.7227 25.2193 6.72273 27.7577 2.81748L25.2423 1.18252C22.7039 5.08776 19.4539 10.0878 16.8385 14.1114C15.5308 16.1233 14.3818 17.8911 13.5597 19.1559C13.1486 19.7883 12.8193 20.2949 12.5927 20.6435C12.4794 20.8178 12.3918 20.9525 12.3326 21.0437C12.3029 21.0893 12.2804 21.124 12.2652 21.1473C12.2576 21.159 12.2519 21.1678 12.2481 21.1737C12.2462 21.1766 12.2447 21.1788 12.2438 21.1803C12.2433 21.1811 12.243 21.1816 12.2427 21.182C12.2426 21.1821 12.2425 21.1823 12.2424 21.1824C12.2424 21.1825 12.2423 21.1825 13.5 22ZM22.1286 32.8619L35.1286 26.8619L33.8714 24.1381L20.8714 30.1381L22.1286 32.8619ZM3.5 20V10H0.5V20H3.5ZM3.5 10V2.5H0.5V10H3.5Z" fill="#3AC4E5"/>
</svg>
